<svg width="40" height="41" viewBox="0 0 40 41" fill="none" xmlns="http://www.w3.org/2000/svg">
<rect y="0.261536" width="40" height="40" rx="20" fill="#F69027"/>
<path fill-rule="evenodd" clip-rule="evenodd" d="M26.0002 16.2615C26.0002 19.5752 23.314 22.2615 20.0002 22.2615C16.6865 22.2615 14.0002 19.5752 14.0002 16.2615C14.0002 12.9478 16.6865 10.2615 20.0002 10.2615C23.314 10.2615 26.0002 12.9478 26.0002 16.2615ZM24.0002 16.2615C24.0002 18.4707 22.2094 20.2615 20.0002 20.2615C17.7911 20.2615 16.0002 18.4707 16.0002 16.2615C16.0002 14.0524 17.7911 12.2615 20.0002 12.2615C22.2094 12.2615 24.0002 14.0524 24.0002 16.2615Z" fill="#002C57"/>
<path d="M20.0002 25.2615C13.5259 25.2615 8.00952 29.0899 5.9082 34.4536C6.4201 34.9619 6.95934 35.4427 7.52353 35.8936C9.08827 30.9692 13.997 27.2615 20.0002 27.2615C26.0035 27.2615 30.9122 30.9692 32.477 35.8936C33.0412 35.4427 33.5804 34.9619 34.0923 34.4536C31.991 29.09 26.4746 25.2615 20.0002 25.2615Z" fill="#002C57"/>
</svg>
