<svg width="28" height="29" viewBox="0 0 28 29" fill="none" xmlns="http://www.w3.org/2000/svg">
<path d="M23.4819 3.01701H4.11066C3.89291 3.01398 3.6767 3.05388 3.47437 3.13443C3.27204 3.21497 3.08756 3.33458 2.93146 3.48643C2.77536 3.63828 2.65071 3.81939 2.56461 4.01942C2.47852 4.21946 2.43267 4.43449 2.42969 4.65224V24.2521C2.43267 24.4699 2.47852 24.6849 2.56461 24.885C2.65071 25.085 2.77536 25.2661 2.93146 25.4179C3.08756 25.5698 3.27204 25.6894 3.47437 25.77C3.6767 25.8505 3.89291 25.8904 4.11066 25.8874H23.4819C23.6996 25.8904 23.9158 25.8505 24.1182 25.77C24.3205 25.6894 24.505 25.5698 24.6611 25.4179C24.8172 25.2661 24.9418 25.085 25.0279 24.885C25.114 24.6849 25.1599 24.4699 25.1628 24.2521V4.65224C25.1599 4.43449 25.114 4.21946 25.0279 4.01942C24.9418 3.81939 24.8172 3.63828 24.6611 3.48643C24.505 3.33458 24.3205 3.21497 24.1182 3.13443C23.9158 3.05388 23.6996 3.01398 23.4819 3.01701ZM9.3251 22.1595H5.89455V11.8678H9.3251V22.1595ZM7.60983 10.427C7.13671 10.427 6.68297 10.2391 6.34843 9.90452C6.01388 9.56997 5.82594 9.11623 5.82594 8.64312C5.82594 8.17 6.01388 7.71626 6.34843 7.38172C6.68297 7.04717 7.13671 6.85923 7.60983 6.85923C7.86105 6.83074 8.11546 6.85563 8.3564 6.93228C8.59734 7.00893 8.81937 7.1356 9.00796 7.30401C9.19654 7.47242 9.34743 7.67876 9.45074 7.90953C9.55405 8.1403 9.60746 8.39028 9.60746 8.64312C9.60746 8.89595 9.55405 9.14594 9.45074 9.3767C9.34743 9.60747 9.19654 9.81381 9.00796 9.98222C8.81937 10.1506 8.59734 10.2773 8.3564 10.354C8.11546 10.4306 7.86105 10.4555 7.60983 10.427ZM21.698 22.1595H18.2674V16.6363C18.2674 15.2527 17.7757 14.3493 16.5293 14.3493C16.1435 14.3521 15.7679 14.4731 15.453 14.696C15.1382 14.9188 14.8992 15.2328 14.7683 15.5957C14.6788 15.8645 14.64 16.1475 14.6539 16.4305V22.1481H11.2233V11.8564H14.6539V13.3087C14.9655 12.7679 15.4188 12.3224 15.9649 12.0202C16.5109 11.7179 17.1291 11.5704 17.7528 11.5934C20.0399 11.5934 21.698 13.0685 21.698 16.2361V22.1595Z" fill="#002C57"/>
</svg>
