<svg width="29" height="29" viewBox="0 0 29 29" fill="none" xmlns="http://www.w3.org/2000/svg">
<path fill-rule="evenodd" clip-rule="evenodd" d="M7.8414 1.66116C9.94678 1.42593 12.1443 1.22009 14.3947 1.22009C16.6452 1.22009 18.8427 1.42593 20.9481 1.66116C22.5483 1.84465 24.0389 2.5656 25.1763 3.70614C26.3136 4.84668 27.0304 6.33933 27.2093 7.94006C27.4348 10.0356 27.6269 12.2175 27.6269 14.4522C27.6269 16.687 27.4348 18.8688 27.2093 20.9644C27.0304 22.5651 26.3136 24.0578 25.1763 25.1983C24.0389 26.3389 22.5483 27.0598 20.9481 27.2433C18.8427 27.4785 16.6452 27.6844 14.3947 27.6844C12.1443 27.6844 9.94678 27.4785 7.8414 27.2433C6.24118 27.0598 4.75055 26.3389 3.61322 25.1983C2.47588 24.0578 1.75913 22.5651 1.58015 20.9644C1.35471 18.8688 1.1626 16.687 1.1626 14.4522C1.1626 12.2175 1.35471 10.0356 1.58015 7.94006C1.75913 6.33933 2.47588 4.84668 3.61322 3.70614C4.75055 2.5656 6.24118 1.84465 7.8414 1.66116ZM17.0059 6.37965C16.9382 6.08633 16.7649 5.82819 16.5191 5.65448C16.2732 5.48077 15.972 5.40365 15.673 5.43782C15.3739 5.47199 15.0979 5.61507 14.8975 5.83976C14.6972 6.06446 14.5866 6.35503 14.5869 6.65605V17.9808C14.5869 18.5825 14.4084 19.1708 14.0741 19.6711C13.7398 20.1714 13.2646 20.5614 12.7087 20.7916C12.1528 21.0219 11.5411 21.0822 10.9509 20.9648C10.3607 20.8474 9.81862 20.5576 9.39313 20.1321C8.96764 19.7066 8.67788 19.1645 8.56049 18.5744C8.44309 17.9842 8.50334 17.3725 8.73362 16.8165C8.96389 16.2606 9.35384 15.7854 9.85416 15.4511C10.3545 15.1168 10.9427 14.9384 11.5444 14.9384C11.8694 14.9384 12.181 14.8093 12.4108 14.5795C12.6406 14.3498 12.7696 14.0381 12.7696 13.7132C12.7696 13.3883 12.6406 13.0766 12.4108 12.8468C12.181 12.6171 11.8694 12.488 11.5444 12.488C10.4581 12.488 9.39608 12.8101 8.4928 13.4137C7.58951 14.0173 6.88548 14.8751 6.46974 15.8788C6.05401 16.8825 5.94523 17.9869 6.15717 19.0524C6.36911 20.1179 6.89225 21.0966 7.66044 21.8648C8.42862 22.633 9.40734 23.1561 10.4728 23.3681C11.5383 23.58 12.6428 23.4712 13.6464 23.0555C14.6501 22.6398 15.508 21.9357 16.1115 21.0324C16.7151 20.1292 17.0372 19.0672 17.0372 17.9808V11.1393C18.2134 12.1391 19.7307 12.6879 21.5107 12.6879C21.8356 12.6879 22.1473 12.5589 22.377 12.3291C22.6068 12.0993 22.7359 11.7877 22.7359 11.4628C22.7359 11.1378 22.6068 10.8262 22.377 10.5964C22.1473 10.3666 21.8356 10.2376 21.5107 10.2376C20.2169 10.2376 19.2563 9.83765 18.5487 9.20839C17.8273 8.5654 17.2921 7.60877 17.0059 6.37965Z" fill="#002C57"/>
</svg>
