<svg width="23" height="27" viewBox="0 0 23 27" fill="none" xmlns="http://www.w3.org/2000/svg">
<path d="M14.0919 18.7791V21.8405C14.0919 22.4885 13.9033 22.8126 13.5261 22.8126C13.3036 22.8126 13.086 22.7062 12.8732 22.4934V18.1262C13.086 17.9134 13.3036 17.807 13.5261 17.807C13.9033 17.807 14.0919 18.131 14.0919 18.7791ZM18.996 18.7936V19.461H17.6901V18.7936C17.6901 18.1359 17.9078 17.807 18.3431 17.807C18.7783 17.807 18.996 18.1359 18.996 18.7936ZM4.98033 15.6306H6.53278V14.2668H2.006V15.6306H3.52944V23.8862H4.98033V15.6306ZM9.1589 23.8862H10.4502V16.7188H9.1589V22.2032C8.86872 22.6094 8.59305 22.8126 8.33189 22.8126C8.15778 22.8126 8.05622 22.711 8.0272 22.5079C8.01753 22.4789 8.0127 22.3096 8.0127 22.0001V16.7188H6.7214V22.3918C6.7214 22.8658 6.76009 23.2188 6.83747 23.451C6.95354 23.8088 7.23405 23.9878 7.67899 23.9878C8.14328 23.9878 8.63658 23.6928 9.1589 23.1027V23.8862ZM15.3832 21.7389V18.8806C15.3832 18.1745 15.3397 17.6958 15.2527 17.4443C15.0882 16.9026 14.7448 16.6318 14.2225 16.6318C13.7389 16.6318 13.2891 16.8929 12.8732 17.4152V14.2668H11.5819V23.8862H12.8732V23.1898C13.3085 23.7218 13.7582 23.9878 14.2225 23.9878C14.7448 23.9878 15.0882 23.7218 15.2527 23.1898C15.3397 22.9286 15.3832 22.445 15.3832 21.7389ZM20.2872 21.5938V21.4052H18.9669C18.9669 21.8985 18.9573 22.1935 18.9379 22.2902C18.8702 22.6385 18.6768 22.8126 18.3576 22.8126C17.9126 22.8126 17.6901 22.4789 17.6901 21.8115V20.5492H20.2872V19.0548C20.2872 18.2906 20.1567 17.7296 19.8955 17.3717C19.5183 16.8784 19.0056 16.6318 18.3576 16.6318C17.6998 16.6318 17.1823 16.8784 16.8051 17.3717C16.5343 17.7296 16.3989 18.2906 16.3989 19.0548V21.5648C16.3989 22.3289 16.5391 22.8899 16.8196 23.2478C17.1968 23.7411 17.7192 23.9878 18.3866 23.9878C19.083 23.9878 19.6053 23.7315 19.9535 23.2188C20.1276 22.9577 20.2292 22.6965 20.2582 22.4353C20.2776 22.3483 20.2872 22.0678 20.2872 21.5938ZM11.4658 8.34717V5.30029C11.4658 4.63288 11.2579 4.29918 10.8419 4.29918C10.426 4.29918 10.2181 4.63288 10.2181 5.30029V8.34717C10.2181 9.02425 10.426 9.36279 10.8419 9.36279C11.2579 9.36279 11.4658 9.02425 11.4658 8.34717ZM21.8977 19.2434C21.8977 21.5068 21.772 23.1995 21.5205 24.3215C21.3851 24.8922 21.1046 25.371 20.679 25.7579C20.2534 26.1448 19.7601 26.3673 19.1991 26.4253C17.4193 26.6284 14.7352 26.73 11.1466 26.73C7.55808 26.73 4.87393 26.6284 3.09417 26.4253C2.53316 26.3673 2.03743 26.1448 1.607 25.7579C1.17657 25.371 0.898484 24.8922 0.77274 24.3215C0.521252 23.2382 0.395508 21.5455 0.395508 19.2434C0.395508 16.98 0.521252 15.2873 0.77274 14.1652C0.908157 13.5946 1.18866 13.1158 1.61426 12.7289C2.03985 12.342 2.53799 12.1147 3.10868 12.0469C4.87877 11.8535 7.55808 11.7568 11.1466 11.7568C14.7352 11.7568 17.4193 11.8535 19.1991 12.0469C19.7601 12.1147 20.2558 12.342 20.6862 12.7289C21.1167 13.1158 21.3948 13.5946 21.5205 14.1652C21.772 15.2486 21.8977 16.9413 21.8977 19.2434ZM7.41783 0.72998H8.89774L7.14216 6.51904V10.451H5.69127V6.51904C5.55585 5.80327 5.26084 4.77797 4.80622 3.44315C4.44834 2.44687 4.13398 1.54248 3.86314 0.72998H5.40109L6.43122 4.54583L7.41783 0.72998ZM12.7861 5.56145V8.10052C12.7861 8.884 12.6507 9.45468 12.3799 9.81257C12.0123 10.3059 11.4997 10.5525 10.8419 10.5525C10.1939 10.5525 9.68606 10.3059 9.3185 9.81257C9.04767 9.44501 8.91225 8.87433 8.91225 8.10052V5.56145C8.91225 4.78764 9.04767 4.2218 9.3185 3.86391C9.68606 3.37061 10.1939 3.12395 10.8419 3.12395C11.4997 3.12395 12.0123 3.37061 12.3799 3.86391C12.6507 4.2218 12.7861 4.78764 12.7861 5.56145ZM17.6466 3.21101V10.451H16.3263V9.65297C15.8137 10.2527 15.3155 10.5525 14.8319 10.5525C14.387 10.5525 14.1016 10.3736 13.9759 10.0157C13.8985 9.78355 13.8598 9.42083 13.8598 8.92752V3.21101H15.1801V8.53578C15.1801 8.85498 15.1849 9.02425 15.1946 9.0436C15.2236 9.25639 15.3252 9.36279 15.4993 9.36279C15.7605 9.36279 16.0361 9.15483 16.3263 8.73891V3.21101H17.6466Z" fill="#002C57"/>
</svg>
