<svg width="30" height="30" viewBox="0 0 30 30" fill="none" xmlns="http://www.w3.org/2000/svg">
<path d="M24.935 23.2394C26.2737 21.6287 27.2048 19.7193 27.6495 17.6726C28.0942 15.6259 28.0394 13.5022 27.4898 11.4812C26.9402 9.46019 25.9119 7.60127 24.4919 6.06172C23.0719 4.52216 21.3019 3.34726 19.3318 2.6364C17.3617 1.92554 15.2494 1.69964 13.1735 1.9778C11.0976 2.25597 9.11931 3.03002 7.40585 4.23447C5.69239 5.43892 4.29424 7.03834 3.32965 8.89743C2.36506 10.7565 1.86243 12.8206 1.86426 14.915C1.86505 17.9597 2.93798 20.9069 4.8948 23.2394L4.87616 23.2553C4.94141 23.3336 5.01599 23.4007 5.08311 23.4781C5.167 23.5741 5.25743 23.6645 5.34412 23.7577C5.60389 24.0417 5.87422 24.3121 6.15512 24.5687C6.24213 24.6458 6.32913 24.721 6.41613 24.7943C6.71443 25.0522 7.02206 25.2952 7.339 25.5233C7.38002 25.5513 7.4173 25.5876 7.45832 25.6165V25.6053C9.64155 27.1419 12.2461 27.9665 14.9158 27.9665C17.5855 27.9665 20.1901 27.1419 22.3733 25.6053V25.6165C22.4143 25.5876 22.4507 25.5513 22.4926 25.5233C22.8096 25.2946 23.1172 25.0516 23.4155 24.7943C23.5025 24.7204 23.5895 24.6452 23.6765 24.5687C23.9568 24.3121 24.2271 24.0417 24.4875 23.7577C24.5742 23.6645 24.6637 23.5741 24.7485 23.4781C24.8147 23.4007 24.8902 23.3336 24.9555 23.2544L24.935 23.2394ZM14.9149 7.4575C15.7446 7.4575 16.5556 7.70352 17.2454 8.16446C17.9353 8.62539 18.4729 9.28054 18.7904 10.047C19.1079 10.8136 19.191 11.657 19.0291 12.4707C18.8673 13.2844 18.4678 14.0319 17.8811 14.6185C17.2944 15.2052 16.547 15.6047 15.7333 15.7666C14.9195 15.9284 14.0761 15.8454 13.3096 15.5279C12.5431 15.2104 11.8879 14.6727 11.427 13.9829C10.9661 13.293 10.72 12.482 10.72 11.6523C10.72 10.5398 11.162 9.47283 11.9487 8.68614C12.7354 7.89946 13.8023 7.4575 14.9149 7.4575ZM7.46391 23.2394C7.48008 22.0154 7.9775 20.847 8.84855 19.987C9.71959 19.1269 10.8942 18.6444 12.1183 18.6438H17.7115C18.9356 18.6444 20.1102 19.1269 20.9812 19.987C21.8523 20.847 22.3497 22.0154 22.3659 23.2394C20.3214 25.0817 17.6669 26.1013 14.9149 26.1013C12.1628 26.1013 9.50835 25.0817 7.46391 23.2394Z" fill="#002C57"/>
</svg>
