<svg width="105" height="126" viewBox="0 0 105 126" fill="none" xmlns="http://www.w3.org/2000/svg">
<g clip-path="url(#clip0_240_2067)">
<path d="M18.375 34.125V52.5H10.5C7.71523 52.5 5.04451 53.6063 3.07538 55.5754C1.10625 57.5445 0 60.2152 0 63L0 115.5C0 118.285 1.10625 120.955 3.07538 122.925C5.04451 124.894 7.71523 126 10.5 126H94.5C97.2848 126 99.9555 124.894 101.925 122.925C103.894 120.955 105 118.285 105 115.5V63C105 60.2152 103.894 57.5445 101.925 55.5754C99.9555 53.6063 97.2848 52.5 94.5 52.5H86.625V34.125C86.625 25.0745 83.0297 16.3947 76.63 9.99498C70.2303 3.5953 61.5505 0 52.5 0C43.4495 0 34.7697 3.5953 28.37 9.99498C21.9703 16.3947 18.375 25.0745 18.375 34.125ZM31.5 52.5V34.125C31.5 28.5555 33.7125 23.214 37.6508 19.2758C41.589 15.3375 46.9305 13.125 52.5 13.125C58.0695 13.125 63.411 15.3375 67.3492 19.2758C71.2875 23.214 73.5 28.5555 73.5 34.125V52.5H31.5ZM42 81.375C42.0004 79.556 42.4733 77.7683 43.3725 76.187C44.2716 74.6058 45.5662 73.2852 47.1292 72.3548C48.6923 71.4244 50.4702 70.916 52.2889 70.8794C54.1075 70.8428 55.9045 71.2793 57.5037 72.1461C59.1029 73.013 60.4494 74.2804 61.4114 75.8242C62.3734 77.368 62.9179 79.1353 62.9914 80.9528C63.0649 82.7703 62.665 84.5758 61.8309 86.1923C60.9967 87.8088 59.7569 89.1808 58.233 90.174L58.191 90.2002C58.191 90.2002 59.2147 96.3952 60.3697 103.693V103.698C60.3684 104.74 59.9536 105.74 59.2165 106.477C58.4794 107.214 57.48 107.629 56.4375 107.63H48.552C47.5095 107.629 46.5102 107.214 45.773 106.477C45.0359 105.74 44.6211 104.74 44.6197 103.698V103.693L46.7985 90.2002C45.3237 89.2491 44.1108 87.9435 43.2708 86.4027C42.4307 84.8619 41.9902 83.1352 41.9895 81.3802L42 81.375Z" fill="#F69027"/>
</g>
<defs>
<clipPath id="clip0_240_2067">
<rect width="105" height="126" fill="white"/>
</clipPath>
</defs>
</svg>
