<svg width="58" height="59" viewBox="0 0 58 59" fill="none" xmlns="http://www.w3.org/2000/svg">
<path d="M2.27051 13.2807L11.3599 18.1693L19.4799 16.769C20.8318 16.5351 22.2189 16.6052 23.5403 16.9742C24.8617 17.3433 26.0843 18.002 27.1194 18.9026M46.7399 38.954L33.8888 48.0849C32.5091 49.0651 30.8623 49.5992 29.1699 49.6155C27.4775 49.6318 25.8207 49.1294 24.4224 48.176L2.27051 33.0753" stroke="#F69027" stroke-width="4.14286" stroke-linecap="round" stroke-linejoin="round"/>
<path d="M55.523 32.98L46.4294 39.1943L32.3188 27.8014L27.1278 31.5756C26.1118 32.3132 24.8492 32.6278 23.6059 32.4532C22.3625 32.2786 21.2355 31.6283 20.462 30.6393C19.6926 29.6508 19.3358 28.4029 19.4663 27.1571C19.5969 25.9113 20.2046 24.7644 21.1621 23.9569L26.5686 19.4121C27.85 18.3334 29.3363 17.5249 30.9382 17.0351C32.54 16.5452 34.2244 16.3843 35.89 16.5619L44.3124 17.465L55.523 11.404" stroke="#F69027" stroke-width="4.14286" stroke-linecap="round" stroke-linejoin="round"/>
<path d="M32.3188 27.8304C35.716 30.8547 40.53 29.3094 42.3197 26.8403" stroke="#F69027" stroke-width="4.14286" stroke-linecap="round" stroke-linejoin="round"/>
</svg>
