<svg width="58" height="59" viewBox="0 0 58 59" fill="none" xmlns="http://www.w3.org/2000/svg">
<path d="M32.625 47.625H47.125V51.25H32.625V47.625ZM32.625 40.375H54.375V44H32.625V40.375ZM32.625 33.125H54.375V36.75H32.625V33.125Z" fill="#F69027"/>
<path d="M37.2454 20.8308L29.0003 4.125L20.7553 20.8308L2.32031 23.5097L15.6603 36.5144L12.5102 54.875L25.3753 48.1126V44.0163L17.326 48.2485L19.2328 37.127L19.5554 35.2474L18.1906 33.9189L10.1104 26.0399L21.2773 24.4178L23.1623 24.1441L24.0069 22.4349L29.0003 12.3157L33.9937 22.4349L34.8384 24.1441L36.7234 24.4178L50.2337 26.3843L50.7503 22.7938L37.2454 20.8308Z" fill="#F69027"/>
</svg>
