<svg width="58" height="59" viewBox="0 0 58 59" fill="none" xmlns="http://www.w3.org/2000/svg">
<path d="M28.7824 34.3309L47.7364 34.3333C49.1785 34.3333 50.5615 34.9062 51.5813 35.9259C52.601 36.9457 53.1739 38.3287 53.1739 39.7708V41.9579C53.1738 43.2638 52.8916 44.5543 52.3464 45.741C51.8013 46.9277 51.0061 47.9826 50.0153 48.8333C46.2308 52.0837 40.8174 53.6715 33.8333 53.6715H33.4007C33.6783 53.1086 33.828 52.4912 33.8388 51.8636C33.8497 51.236 33.7215 50.6138 33.4635 50.0417L33.8333 50.0465C40.0199 50.0465 44.6068 48.7028 47.6542 46.0856C48.2486 45.5751 48.7256 44.9421 49.0526 44.2301C49.3796 43.5181 49.5489 42.7439 49.5489 41.9603V39.7732C49.5489 39.2925 49.3579 38.8315 49.018 38.4916C48.6781 38.1517 48.2171 37.9607 47.7364 37.9607H28.9444C29.0536 36.7498 28.9991 35.5297 28.7824 34.3333M15.7083 25.875C17.7742 25.8751 19.7973 26.4636 21.5409 27.5717C23.2845 28.6798 24.6764 30.2617 25.5537 32.1321C26.4309 34.0025 26.7573 36.084 26.4945 38.1332C26.2318 40.1823 25.3908 42.1142 24.0699 43.7028L30.8922 50.5033C31.2143 50.8267 31.4025 51.2598 31.4192 51.7159C31.4359 52.1721 31.2799 52.6178 30.9823 52.9639C30.6847 53.31 30.2675 53.5311 29.8139 53.583C29.3604 53.6349 28.904 53.5137 28.5359 53.2437L28.3305 53.0698L21.3149 46.0711C19.8785 46.9344 18.2619 47.4541 16.5914 47.5895C14.9209 47.7248 13.2417 47.4723 11.685 46.8516C10.1282 46.2308 8.73598 45.2587 7.61698 44.011C6.49798 42.7633 5.6825 41.2739 5.23418 39.659C4.78587 38.0441 4.71687 36.3475 5.03257 34.7015C5.34826 33.0556 6.04011 31.5048 7.0541 30.1704C8.06808 28.836 9.37677 27.754 10.878 27.0089C12.3792 26.2638 14.0323 25.8757 15.7083 25.875ZM15.7083 29.5C13.7855 29.5 11.9414 30.2638 10.5818 31.6235C9.22212 32.9831 8.45828 34.8272 8.45828 36.75C8.45828 38.6728 9.22212 40.5169 10.5818 41.8765C11.9414 43.2362 13.7855 44 15.7083 44C17.6311 44 19.4752 43.2362 20.8348 41.8765C22.1944 40.5169 22.9583 38.6728 22.9583 36.75C22.9583 34.8272 22.1944 32.9831 20.8348 31.6235C19.4752 30.2638 17.6311 29.5 15.7083 29.5ZM33.8333 5.34541C35.4201 5.34541 36.9914 5.65796 38.4574 6.2652C39.9234 6.87245 41.2554 7.7625 42.3775 8.88454C43.4995 10.0066 44.3896 11.3386 44.9968 12.8047C45.6041 14.2707 45.9166 15.8419 45.9166 17.4287C45.9166 19.0156 45.6041 20.5868 44.9968 22.0528C44.3896 23.5189 43.4995 24.8509 42.3775 25.973C41.2554 27.095 39.9234 27.985 38.4574 28.5923C36.9914 29.1995 35.4201 29.5121 33.8333 29.5121C30.6286 29.5121 27.5551 28.239 25.2891 25.973C23.023 23.7069 21.7499 20.6334 21.7499 17.4287C21.7499 14.224 23.023 11.1506 25.2891 8.88454C27.5551 6.61848 30.6286 5.34541 33.8333 5.34541ZM33.8333 8.97041C32.7225 8.97041 31.6226 9.18919 30.5964 9.61427C29.5702 10.0393 28.6378 10.6624 27.8523 11.4478C27.0669 12.2332 26.4439 13.1657 26.0188 14.1919C25.5937 15.2181 25.3749 16.318 25.3749 17.4287C25.3749 18.5395 25.5937 19.6394 26.0188 20.6656C26.4439 21.6918 27.0669 22.6243 27.8523 23.4097C28.6378 24.1951 29.5702 24.8182 30.5964 25.2432C31.6226 25.6683 32.7225 25.8871 33.8333 25.8871C36.0766 25.8871 38.228 24.9959 39.8142 23.4097C41.4005 21.8234 42.2916 19.672 42.2916 17.4287C42.2916 15.1855 41.4005 13.034 39.8142 11.4478C38.228 9.86156 36.0766 8.97041 33.8333 8.97041Z" fill="#F69027"/>
</svg>
