<svg width="59" height="59" viewBox="0 0 59 59" fill="none" xmlns="http://www.w3.org/2000/svg">
<path fill-rule="evenodd" clip-rule="evenodd" d="M32.426 36.7572C32.6435 36.1531 32.8369 35.5223 33.006 34.894C33.1752 34.2633 33.3444 32.9558 33.4652 31.9867C35.4008 32.1733 37.3365 31.632 38.8945 30.4684C40.4526 29.3049 41.5213 27.6026 41.8921 25.6938C42.4797 23.825 42.5652 21.8346 42.1402 19.9223C41.7152 18.0101 40.7945 16.2433 39.4706 14.7994C38.6731 14.0019 37.3657 13.9777 36.1549 15.4036C35.2328 16.679 34.4226 18.0317 33.7334 19.4467C32.8114 19.1051 31.9135 18.7014 31.0461 18.2383C31.2201 17.8758 31.3732 17.5045 31.5053 17.1242C32.0853 15.5244 32.8852 13.782 33.0302 13.1537C33.0794 12.6866 32.9569 12.2176 32.6856 11.8343C32.4144 11.4509 32.0128 11.1795 31.556 11.0705C29.8085 10.6334 27.9669 10.7689 26.3022 11.4572C25.0323 12.0194 23.8913 12.8362 22.9497 13.8571C22.0082 14.8781 21.2862 16.0813 20.8284 17.3925C20.1946 18.7106 19.8376 20.1446 19.7794 21.606C19.7212 23.0674 19.9631 24.5252 20.4901 25.8895C21.2002 27.3817 22.4577 28.5431 24.0015 29.1327C23.1557 30.7059 22.2591 32.2332 21.58 33.9757C21.0725 35.1357 20.6617 36.3972 20.2509 37.5813C19.8376 38.7679 19.7409 39.2778 19.2794 40.6578C18.8202 42.0353 20.9759 42.2528 21.7009 41.2378C22.4259 40.2228 22.45 39.9327 22.9599 38.8162C23.4674 37.7046 23.6366 37.3179 23.9266 36.5663C24.2456 35.7769 24.5122 34.9697 24.7265 34.1448C25.2582 32.3299 25.5989 30.4884 26.0823 28.6252C26.5656 26.7619 22.7666 28.6252 21.9909 24.0021C21.7505 22.056 22.123 20.0835 23.0566 18.3592C23.5442 17.0417 24.4224 15.9044 25.5737 15.0995C26.725 14.2945 28.0946 13.8602 29.4994 13.8545C28.9517 15 28.4836 16.1785 28.0954 17.3901C27.8924 18.1175 27.8924 18.8884 28.0954 19.6158C28.2436 20.0484 28.5561 20.4052 28.9654 20.6091C29.4294 20.8669 29.9062 21.1005 30.396 21.3099C31.7308 21.9916 33.1714 22.4427 34.6566 22.6439C35.02 22.5704 35.3615 22.4142 35.6549 22.1875C35.9482 21.9607 36.1855 21.6696 36.3483 21.3365C36.7132 20.6598 37.2956 19.3983 37.8998 18.3326C38.0367 18.0974 38.2059 17.8879 38.4073 17.7042C39.1374 18.7481 39.6287 19.9398 39.8463 21.1949C40.0639 22.45 40.0025 23.7377 39.6664 24.9663C37.6823 32.9075 32.7184 28.0911 32.2109 29.8093C31.7034 31.5276 30.8069 32.4483 30.1761 33.8524C29.9103 34.4324 29.6928 35.0366 29.4753 35.6432C29.2578 36.2473 29.0886 36.8515 28.9194 37.4823C28.5569 38.838 28.4844 39.2996 28.1437 40.6312C27.9745 41.5012 30.1761 41.6945 30.5652 40.752C30.9519 39.8095 31.2902 39.4446 31.7252 38.4997C31.9185 37.9438 32.2061 37.3397 32.426 36.7572Z" fill="#F69027"/>
<path fill-rule="evenodd" clip-rule="evenodd" d="M54.6258 13.9028C50.8413 8.67787 45.4775 4.80775 39.3259 2.8635C33.2401 0.741627 26.6648 0.45589 20.4179 2.04183C14.591 3.78858 9.44374 7.2879 5.6762 12.0637C3.7064 14.4068 2.2457 17.1342 1.38697 20.0723C0.528245 23.0105 0.290276 26.0952 0.688199 29.1303C1.30354 32.3185 2.74562 35.2892 4.87005 37.7449C6.99449 40.2005 9.72675 42.055 12.7933 43.1227C18.1129 45.2426 23.9813 45.5576 29.4973 44.0193C29.8517 45.595 30.2948 47.1449 30.8265 48.669C31.4089 50.3365 32.0396 52.033 32.6679 53.6546C33.103 54.7445 33.5621 55.7861 33.927 56.8277C33.9969 57.061 34.1208 57.2746 34.2888 57.451C34.4568 57.6273 34.664 57.7616 34.8937 57.8427C35.0847 57.9272 35.2914 57.9709 35.5003 57.9709C35.7092 57.9709 35.9158 57.9272 36.1069 57.8427C36.4241 57.7201 36.7005 57.5107 36.9044 57.2385C37.0977 56.9968 37.3394 56.3685 37.5327 56.1003L39.5434 52.7604L44.6764 43.3668C44.78 43.5064 44.922 43.6127 45.0851 43.6728C45.2482 43.7329 45.4253 43.7441 45.5947 43.7052C48.5776 42.9506 51.2987 41.3979 53.4658 39.2137C55.6329 37.0295 57.1643 34.2964 57.8955 31.3077C58.6125 28.3403 58.6918 25.2547 58.1282 22.2544C57.5645 19.2542 56.3708 16.4076 54.6258 13.9028ZM55.7157 30.8509C55.1207 33.4939 53.8168 35.9248 51.9443 37.8825C50.0717 39.8403 47.7011 41.2509 45.0872 41.9627C44.8694 42.037 44.6824 42.1815 44.5555 42.3736C44.5555 42.3736 44.5555 42.1802 44.3622 42.1319C44.2565 42.0671 44.1387 42.0244 44.016 42.0064C43.8933 41.9883 43.7682 41.9953 43.6483 42.027C43.5284 42.0586 43.4161 42.1142 43.3183 42.1903C43.2204 42.2665 43.139 42.3617 43.0789 42.4702L37.001 51.2814L35.8169 53.0504L35.5269 52.4704C34.3379 50.0489 32.9096 47.6274 31.8197 45.2059C31.6022 44.6984 31.433 44.1667 31.2397 43.6568C31.4433 43.5709 31.6066 43.4106 31.6964 43.2086C31.7862 43.0067 31.7957 42.7781 31.723 42.5693C31.6425 42.3613 31.483 42.1936 31.2793 42.1026C31.0756 42.0116 30.8442 42.0048 30.6355 42.0836H30.5147C29.6866 42.14 28.8794 42.3011 28.0932 42.5669L26.7616 42.9294C24.7534 43.1952 22.7185 43.1952 20.7079 42.9294C18.3076 42.5616 15.9484 41.9627 13.6633 41.1411C11.0059 40.1642 8.65325 38.5036 6.84273 36.3269C5.03222 34.1502 3.82791 31.5344 3.35137 28.7436C3.09634 26.0853 3.3948 23.403 4.22791 20.8658C5.06103 18.3287 6.41074 15.9916 8.19195 14.0019C11.5579 9.78756 16.1263 6.69679 21.2903 5.14C26.9258 3.68544 32.8622 3.89529 38.381 5.74417C43.9677 7.4055 48.8837 10.7959 52.4218 15.4277C54.0277 17.6067 55.1518 20.1023 55.7197 22.7488C56.2876 25.3954 56.2862 28.1324 55.7157 30.7784V30.8509Z" fill="#F69027"/>
</svg>
