<svg width="58" height="59" viewBox="0 0 58 59" fill="none" xmlns="http://www.w3.org/2000/svg">
<path d="M19.2605 24.3912H38.7388M19.2605 34.6088H33.1515M28.9996 51.8542C33.8556 51.8531 38.5793 50.2709 42.4561 47.3466C46.3329 44.4224 49.1522 40.3153 50.4874 35.6465C51.8226 30.9777 51.6012 26.001 49.8566 21.4692C48.1121 16.9373 44.9393 13.0968 40.8181 10.5285C36.6969 7.96008 31.8514 6.80354 27.0145 7.23373C22.1775 7.66392 17.6122 9.65746 14.009 12.9128C10.4058 16.1682 7.96054 20.5084 7.04317 25.277C6.1258 30.0455 6.78615 34.9832 8.92438 39.3431C9.18538 39.8748 9.27238 40.4741 9.13946 41.0493L7.16746 49.5946C7.11187 49.8344 7.11824 50.0844 7.18599 50.3211C7.25374 50.5578 7.38062 50.7733 7.5547 50.9474C7.72877 51.1214 7.94429 51.2483 8.18096 51.3161C8.41763 51.3838 8.66765 51.3902 8.90746 51.3346L17.4504 49.3602C18.0272 49.2339 18.6299 49.3107 19.1565 49.5777C22.2194 51.0818 25.5874 51.8607 28.9996 51.8542Z" stroke="#F69027" stroke-width="3.625" stroke-linecap="round" stroke-linejoin="round"/>
</svg>
