<svg width="59" height="59" viewBox="0 0 59 59" fill="none" xmlns="http://www.w3.org/2000/svg">
<path d="M50.3438 45.5293C51.5898 46.1523 52.7132 46.917 53.7139 47.8232C54.7145 48.7295 55.5641 49.7396 56.2627 50.8535C56.9613 51.9674 57.5088 53.1758 57.9053 54.4785C58.3018 55.7812 58.5 57.1217 58.5 58.5H54.875C54.875 57.0085 54.5918 55.6019 54.0254 54.2803C53.459 52.9587 52.6849 51.807 51.7031 50.8252C50.7214 49.8434 49.5602 49.0599 48.2197 48.4746C46.8792 47.8893 45.4727 47.6061 44 47.625C42.4896 47.625 41.083 47.9082 39.7803 48.4746C38.4775 49.041 37.3258 49.8151 36.3252 50.7969C35.3245 51.7786 34.541 52.9398 33.9746 54.2803C33.4082 55.6208 33.125 57.0273 33.125 58.5H29.5C29.5 57.1217 29.6888 55.7812 30.0664 54.4785C30.444 53.1758 30.9915 51.9674 31.709 50.8535C32.4264 49.7396 33.2855 48.7295 34.2861 47.8232C35.2868 46.917 36.4102 46.1523 37.6562 45.5293C36.2402 44.5098 35.1357 43.2354 34.3428 41.7061C33.5498 40.1768 33.1439 38.5247 33.125 36.75C33.125 35.2585 33.4082 33.8519 33.9746 32.5303C34.541 31.2087 35.3151 30.057 36.2969 29.0752C37.2786 28.0934 38.4303 27.3099 39.752 26.7246C41.0736 26.1393 42.4896 25.8561 44 25.875C45.4915 25.875 46.8981 26.1582 48.2197 26.7246C49.5413 27.291 50.693 28.0651 51.6748 29.0469C52.6566 30.0286 53.4401 31.1898 54.0254 32.5303C54.6107 33.8708 54.8939 35.2773 54.875 36.75C54.875 38.5247 54.4785 40.1768 53.6855 41.7061C52.8926 43.2354 51.7786 44.5098 50.3438 45.5293ZM44 44C45.0007 44 45.9352 43.8112 46.8037 43.4336C47.6722 43.056 48.4463 42.5368 49.126 41.876C49.8057 41.2152 50.3249 40.4505 50.6836 39.582C51.0423 38.7135 51.2311 37.7695 51.25 36.75C51.25 35.7493 51.0612 34.8148 50.6836 33.9463C50.306 33.0778 49.7868 32.3037 49.126 31.624C48.4652 30.9443 47.7005 30.4251 46.832 30.0664C45.9635 29.7077 45.0195 29.5189 44 29.5C42.9993 29.5 42.0648 29.6888 41.1963 30.0664C40.3278 30.444 39.5537 30.9632 38.874 31.624C38.1943 32.2848 37.6751 33.0495 37.3164 33.918C36.9577 34.7865 36.7689 35.7305 36.75 36.75C36.75 37.7507 36.9388 38.6852 37.3164 39.5537C37.694 40.4222 38.2132 41.1963 38.874 41.876C39.5348 42.5557 40.2995 43.0749 41.168 43.4336C42.0365 43.7923 42.9805 43.9811 44 44ZM29.5 46.2656C28.8958 46.9642 28.3483 47.6911 27.8574 48.4463C27.3665 49.2015 26.9323 50.0133 26.5547 50.8818C25.554 49.8434 24.3457 49.041 22.9297 48.4746C21.5137 47.9082 20.0788 47.625 18.625 47.625H7.75V11.375H4.125V51.25H26.4131C26.1488 51.8353 25.9316 52.43 25.7617 53.0342C25.5918 53.6383 25.4502 54.252 25.3369 54.875H0.5V7.75H7.75V4.125H18.625C20.2865 4.125 21.8818 4.37988 23.4111 4.88965C24.9404 5.39941 26.3659 6.16406 27.6875 7.18359C28.9902 6.16406 30.4062 5.39941 31.9355 4.88965C33.4648 4.37988 35.0697 4.125 36.75 4.125H47.625V7.75H54.875V25.875C53.7799 24.7988 52.5716 23.902 51.25 23.1846V11.375H47.625V21.8252C47.0208 21.6553 46.4167 21.5326 45.8125 21.457C45.2083 21.3815 44.6042 21.3438 44 21.3438V7.75H36.75C35.4284 7.75 34.1445 7.97656 32.8984 8.42969C31.6523 8.88281 30.5195 9.55306 29.5 10.4404V46.2656ZM25.875 45.8975V10.4404C24.8555 9.57194 23.7227 8.91113 22.4766 8.45801C21.2305 8.00488 19.9466 7.76888 18.625 7.75H11.375V44H18.625C19.89 44 21.1361 44.1605 22.3633 44.4814C23.5905 44.8024 24.7611 45.2744 25.875 45.8975Z" fill="#F69027"/>
</svg>
