<svg width="126" height="126" viewBox="0 0 126 126" fill="none" xmlns="http://www.w3.org/2000/svg">
<path fill-rule="evenodd" clip-rule="evenodd" d="M86.898 116.198C79.338 115.92 57.9128 112.959 35.4743 90.5257C13.041 68.0872 10.0852 46.6673 9.80175 39.102C9.38175 27.573 18.2122 16.3748 28.413 12.0015C29.6414 11.4711 30.9866 11.2691 32.3165 11.4155C33.6465 11.5618 34.9156 12.0514 35.9992 12.8363C44.3993 18.9578 50.1952 28.2188 55.1722 35.5005C56.2673 37.1003 56.7355 39.0471 56.4877 40.9699C56.2398 42.8927 55.2932 44.6572 53.8283 45.927L43.5855 53.5342C43.0906 53.8916 42.7423 54.4164 42.6052 55.0112C42.4681 55.606 42.5515 56.2303 42.84 56.7682C45.1605 60.984 49.287 67.263 54.012 71.988C58.737 76.713 65.3153 81.1125 69.825 83.6955C70.3904 84.0129 71.056 84.1016 71.6848 83.9435C72.3137 83.7853 72.858 83.3922 73.206 82.845L79.8735 72.6968C81.0993 71.0685 82.9076 69.9776 84.9197 69.6527C86.9317 69.3278 88.9915 69.794 90.6675 70.9538C98.0543 76.0673 106.675 81.7635 112.985 89.8433C113.834 90.9348 114.374 92.2341 114.548 93.6056C114.723 94.9771 114.526 96.3703 113.977 97.6395C109.583 107.893 98.4638 116.623 86.898 116.198Z" fill="#F69027"/>
</svg>
