<svg width="48" height="48" viewBox="0 0 48 48" fill="none" xmlns="http://www.w3.org/2000/svg">
<path fill-rule="evenodd" clip-rule="evenodd" d="M9.32784 23.884C9.57525 23.9723 9.83763 24.011 10.1 23.9978C10.3623 23.9847 10.6195 23.92 10.8569 23.8075C11.0943 23.6949 11.3071 23.5367 11.4833 23.3419C11.6595 23.1471 11.7956 22.9194 11.8838 22.672L12.8378 20H19.1618L20.1158 22.672C20.2041 22.9194 20.3402 23.147 20.5164 23.3418C20.6926 23.5366 20.9055 23.6948 21.1428 23.8074C21.3802 23.9199 21.6374 23.9846 21.8997 23.9978C22.1621 24.0109 22.4244 23.9723 22.6718 23.884C22.9193 23.7958 23.1469 23.6596 23.3417 23.4834C23.5365 23.3072 23.6947 23.0944 23.8072 22.857C23.9198 22.6197 23.9844 22.3625 23.9976 22.1001C24.0107 21.8378 23.9721 21.5754 23.8838 21.328L19.2198 8.26801C18.9823 7.60424 18.5454 7.03011 17.969 6.62419C17.3926 6.21827 16.7048 6.0004 15.9998 6.0004C15.2949 6.0004 14.6071 6.21827 14.0307 6.62419C13.4543 7.03011 13.0174 7.60424 12.7798 8.26801L8.11584 21.328C8.02756 21.5754 7.98888 21.8378 8.00201 22.1002C8.01515 22.3625 8.07983 22.6197 8.19238 22.8571C8.30493 23.0944 8.46314 23.3073 8.65796 23.4835C8.85279 23.6597 9.08041 23.7958 9.32784 23.884ZM15.9998 11.146L17.7338 16H14.2658L15.9998 11.146ZM32.5858 8.58601C32.9609 8.21107 33.4695 8.00044 33.9998 8.00044C34.5302 8.00044 35.0388 8.21107 35.4138 8.58601L41.0718 14.242C41.4471 14.6173 41.658 15.1263 41.658 15.657C41.658 16.1877 41.4471 16.6967 41.0718 17.072C40.6966 17.4473 40.1876 17.6581 39.6568 17.6581C39.1261 17.6581 38.6171 17.4473 38.2418 17.072L35.9998 14.828V40C35.9998 40.5304 35.7891 41.0392 35.4141 41.4142C35.039 41.7893 34.5303 42 33.9998 42C33.4694 42 32.9607 41.7893 32.5856 41.4142C32.2106 41.0392 31.9998 40.5304 31.9998 40V14.828L29.7578 17.072C29.572 17.2578 29.3514 17.4052 29.1086 17.5058C28.8659 17.6064 28.6056 17.6581 28.3428 17.6581C28.0801 17.6581 27.8198 17.6064 27.5771 17.5058C27.3343 17.4052 27.1137 17.2578 26.9278 17.072C26.742 16.8862 26.5946 16.6656 26.4941 16.4228C26.3935 16.18 26.3417 15.9198 26.3417 15.657C26.3417 15.3942 26.3935 15.134 26.4941 14.8912C26.5946 14.6484 26.742 14.4278 26.9278 14.242L32.5858 8.58601ZM9.99984 26C9.46941 26 8.9607 26.2107 8.58563 26.5858C8.21056 26.9609 7.99984 27.4696 7.99984 28C7.99984 28.5304 8.21056 29.0391 8.58563 29.4142C8.9607 29.7893 9.46941 30 9.99984 30H17.1718L8.92784 38.244C7.53984 39.63 8.51984 42 10.4798 42H21.9998C22.5303 42 23.039 41.7893 23.4141 41.4142C23.7891 41.0392 23.9998 40.5304 23.9998 40C23.9998 39.4696 23.7891 38.9609 23.4141 38.5858C23.039 38.2107 22.5303 38 21.9998 38H14.8278L23.0718 29.756C24.4578 28.37 23.4778 26 21.5178 26H9.99984Z" fill="#002C57"/>
</svg>
